# xmcd
#
# Track frame offsets: 
#        150
#        11695
#        25495
#        54374
#        69312
#        82647
#        99226
#        115295
#        127861
#        142507
#        160882
#
# Disc length: 2371 seconds
#
# Revision: 0
# Processed by: cddbd v1.5.2PL0 Copyright (c) Steve Scherf et al.
# Submitted via: ExactAudioCopyFreeDBPlugin 1.0
#
DISCID=7609410b
DTITLE=Zeshan B - Vetted
DYEAR=2017
DGENRE=R&B
TTITLE0=Lonely Man
TTITLE1=I'm at the Breaking Point
TTITLE2=Ain't No Love in the Heart of the City (feat. Kameron Whalum)
TTITLE3=What Now
TTITLE4=Meri Jaan
TTITLE5=Cryin' in the Streets
TTITLE6=Hard Road to Travel
TTITLE7=Prove It to Me
TTITLE8=I Keep Wanting You
TTITLE9=Ki Jana?
TTITLE10=You Don't Miss Your Water
EXTD=
EXTT0=
EXTT1=
EXTT2=
EXTT3=
EXTT4=
EXTT5=
EXTT6=
EXTT7=
EXTT8=
EXTT9=
EXTT10=
PLAYORDER=
